<svg id="canvas" height="auto" xmlns="http://www.w3.org/2000/svg" version="1.1" xmlns:xlink="http://www.w3.org/1999/xlink" xmlns:svgjs="http://svgjs.dev/svgjs" viewBox="0 0 900 512" width="auto" style="width: auto; height: auto;"><defs><linearGradient gradientTransform="matrix(6.123233995736766e-17,1,-1,6.123233995736766e-17,0,0)" id="SvgjsLinearGradient1006"><stop stop-color="#a4161aff" offset="0"/><stop stop-color="#000000ff" offset="1"/></linearGradient><linearGradient gradientTransform="matrix(-0.25881904510252085,0.9659258262890683,-0.9659258262890683,-0.25881904510252085,0,0)" id="SvgjsLinearGradient1007"><stop stop-color="#c50e0fff" offset="0"/><stop stop-color="#660708ff" offset="1"/></linearGradient><linearGradient gradientTransform="matrix(-0.25881904510252085,0.9659258262890683,-0.9659258262890683,-0.25881904510252085,0,0)" id="SvgjsLinearGradient1008"><stop stop-color="#000000ff" offset="0"/><stop stop-color="#660708ff" offset="1"/></linearGradient></defs><rect width="900" height="512" fill="url(#SvgjsLinearGradient1006)"/><g transform="matrix(0.8,0,0,0.8,-59.599999999999994,31.120001220703116)"><path d="M291 448.5L369.5 2L2 448.5H291Z" fill="url(#SvgjsLinearGradient1007)" transform="matrix(1,0,0,1,-300,153.59999999999997)"/><path d="M290.5 448L370 2.5L708.5 448H290.5Z" fill="url(#SvgjsLinearGradient1008)" transform="matrix(1,0,0,1,-300,153.59999999999997)"/></g><g transform="matrix(0.2,0,0,0.2,1.6,339.5199951171875)"><path d="M291 448.5L369.5 2L2 448.5H291Z" fill="url(#SvgjsLinearGradient1007)" transform="matrix(1,0,0,1,0,422.4)"/><path d="M290.5 448L370 2.5L708.5 448H290.5Z" fill="url(#SvgjsLinearGradient1008)" transform="matrix(1,0,0,1,0,422.4)"/></g><g transform="matrix(0.2,0,0,0.2,241.6,339.5199951171875)"><path d="M291 448.5L369.5 2L2 448.5H291Z" fill="url(#SvgjsLinearGradient1007)" transform="matrix(1,0,0,1,300,422.4)"/><path d="M290.5 448L370 2.5L708.5 448H290.5Z" fill="url(#SvgjsLinearGradient1008)" transform="matrix(1,0,0,1,300,422.4)"/></g><g transform="matrix(0.5544837228402493,0,0,0.5544837228402493,268.2007988501699,118.32523745459622)"><path d="M291 448.5L369.5 2L2 448.5H291Z" fill="url(#SvgjsLinearGradient1007)" transform="matrix(1,0,0,1,600,263.5912921675683)"/><path d="M290.5 448L370 2.5L708.5 448H290.5Z" fill="url(#SvgjsLinearGradient1008)" transform="matrix(1,0,0,1,600,263.5912921675683)"/></g></svg>